<?xml version="1.0" standalone="no"?>
<!DOCTYPE svg PUBLIC "-//W3C//DTD SVG 20010904//EN"
 "http://www.w3.org/TR/2001/REC-SVG-20010904/DTD/svg10.dtd">
<svg version="1.0" xmlns="http://www.w3.org/2000/svg"
 width="512.000000pt" height="512.000000pt" viewBox="0 0 512.000000 512.000000"
 preserveAspectRatio="xMidYMid meet">

<g transform="translate(0.000000,512.000000) scale(0.100000,-0.100000)"
fill="#000000" stroke="none">
<path d="M2515 5111 c-11 -5 -27 -17 -36 -27 -24 -28 -1457 -2756 -1500 -2854
-246 -568 -120 -1245 315 -1698 192 -199 372 -319 626 -418 202 -78 381 -108
640 -108 318 0 544 51 801 180 187 93 310 185 465 346 201 210 344 479 404
761 67 312 37 640 -84 925 -47 112 -1485 2843 -1511 2870 -24 26 -87 38 -120
23z m630 -1433 c787 -1495 780 -1481 820 -1583 238 -614 -18 -1317 -608 -1670
-265 -158 -576 -227 -919 -204 -440 28 -840 240 -1093 578 -70 93 -170 279
-204 380 -101 298 -98 608 8 901 17 47 80 178 139 291 307 590 1268 2409 1272
2409 3 0 266 -496 585 -1102z"/>
<path d="M2095 2772 c-145 -10 -282 -109 -348 -250 -40 -86 -49 -209 -22 -293
71 -216 276 -339 492 -295 234 48 381 274 329 506 -46 208 -236 348 -451 332z
m156 -248 c109 -74 123 -242 27 -331 -35 -33 -91 -53 -147 -53 -62 0 -89 10
-136 52 -117 102 -91 282 50 350 59 28 149 20 206 -18z"/>
<path d="M3244 2751 c-12 -9 -362 -455 -778 -990 -717 -922 -756 -974 -756
-1012 0 -33 7 -48 34 -75 35 -35 64 -42 110 -25 16 7 291 352 773 973 412 530
757 974 766 988 47 68 -2 160 -85 160 -26 -1 -51 -8 -64 -19z"/>
<path d="M2864 1476 c-73 -24 -123 -56 -176 -110 -244 -248 -111 -657 232
-718 77 -13 167 0 246 36 262 120 327 463 128 676 -31 33 -74 64 -123 88 -69
34 -82 37 -170 39 -58 1 -112 -3 -137 -11z m212 -215 c102 -46 151 -175 105
-276 -38 -83 -108 -128 -197 -127 -220 2 -287 299 -91 397 61 30 125 32 183 6z"/>
</g>
</svg>
