<?xml version="1.0" standalone="no"?>
<!DOCTYPE svg PUBLIC "-//W3C//DTD SVG 20010904//EN"
 "http://www.w3.org/TR/2001/REC-SVG-20010904/DTD/svg10.dtd">
<svg version="1.0" xmlns="http://www.w3.org/2000/svg"
 width="512.000000pt" height="512.000000pt" viewBox="0 0 512.000000 512.000000"
 preserveAspectRatio="xMidYMid meet">

<g transform="translate(0.000000,512.000000) scale(0.100000,-0.100000)"
fill="#000000" stroke="none">
<path d="M2279 5099 c-73 -42 -74 -48 -77 -386 l-3 -303 -42 0 c-64 0 -117
-35 -141 -92 -36 -87 -27 -100 237 -365 324 -324 289 -323 606 -10 269 267
285 292 240 384 -25 51 -78 83 -138 83 l-40 0 -3 303 c-3 339 -4 344 -78 386
-35 20 -52 21 -281 21 -229 0 -246 -2 -280 -21z m493 -443 l3 -314 25 -27 c34
-37 72 -55 115 -55 19 0 35 -3 35 -8 0 -4 -88 -95 -195 -202 l-195 -195 -195
195 c-107 107 -195 198 -195 202 0 5 16 8 35 8 43 0 81 18 115 55 l25 27 3
314 3 314 209 0 209 0 3 -314z"/>
<path d="M156 3735 c-151 -53 -203 -229 -104 -349 47 -58 90 -73 310 -111 735
-126 1273 -174 2050 -182 871 -9 1497 39 2315 177 251 42 292 56 341 115 109
132 34 328 -138 360 -22 4 -101 -5 -210 -24 -496 -87 -1029 -145 -1568 -172
-314 -15 -1174 -7 -1462 15 -448 34 -821 79 -1229 147 -129 21 -242 39 -250
39 -9 -1 -34 -7 -55 -15z m265 -170 c726 -123 1361 -175 2139 -175 785 0 1405
51 2142 176 218 37 235 36 258 -6 15 -28 12 -55 -7 -79 -14 -17 -46 -27 -151
-46 -487 -90 -1094 -158 -1651 -186 -270 -13 -1176 -7 -1396 10 -559 43 -1031
101 -1437 176 -142 26 -168 40 -168 92 0 23 40 73 58 73 5 0 101 -16 213 -35z"/>
<path d="M121 2758 c-112 -55 -152 -201 -87 -312 34 -57 85 -93 155 -106 78
-15 3677 -14 3720 1 53 19 69 81 31 119 -20 20 -33 20 -1858 20 -1147 0 -1850
4 -1871 10 -60 17 -80 76 -41 118 l21 22 2369 0 2369 0 21 -22 c39 -42 19
-101 -41 -118 -19 -6 -185 -10 -371 -10 l-337 0 -20 -26 c-27 -35 -26 -57 3
-91 l24 -28 331 -3 c363 -3 424 2 486 46 52 36 95 118 95 182 0 65 -43 145
-99 185 l-43 30 -2406 3 -2407 2 -44 -22z"/>
<path d="M2000 2024 c-610 -34 -1086 -85 -1608 -174 -251 -43 -292 -57 -340
-115 -108 -131 -36 -323 135 -359 20 -5 120 8 275 33 422 70 772 112 1243 148
332 26 1378 26 1710 0 470 -36 843 -80 1245 -148 146 -25 248 -38 270 -34 107
20 190 116 190 220 0 77 -51 160 -122 196 -69 35 -706 134 -1153 179 -446 45
-604 52 -1200 55 -319 1 -609 1 -645 -1z m1175 -154 c545 -29 1114 -93 1597
-180 133 -24 166 -33 181 -51 19 -24 22 -51 7 -79 -23 -42 -40 -43 -258 -6
-739 125 -1354 176 -2142 176 -783 0 -1408 -51 -2143 -176 -193 -33 -210 -34
-233 -20 -46 31 -41 106 9 125 34 13 477 86 697 115 304 41 715 79 1025 95
221 12 1041 12 1260 1z"/>
<path d="M2494 1394 c-16 -8 -130 -115 -251 -237 -253 -254 -262 -269 -227
-355 24 -56 77 -92 140 -92 l42 0 4 -66 c4 -58 8 -70 32 -91 32 -27 66 -25 99
5 16 14 18 30 15 119 -3 92 -5 104 -28 128 -34 37 -72 55 -115 55 -19 0 -35 3
-35 8 0 4 88 95 195 202 l195 195 195 -195 c107 -107 195 -198 195 -202 0 -5
-16 -8 -35 -8 -43 0 -81 -18 -115 -55 l-25 -27 -3 -314 -3 -314 -209 0 -210 0
0 70 c0 57 -4 74 -20 90 -25 25 -71 26 -101 1 -22 -18 -24 -26 -24 -113 1
-108 15 -143 75 -177 35 -20 53 -21 280 -21 227 0 245 1 280 21 74 42 75 47
78 386 l3 303 40 0 c60 0 113 32 138 83 26 53 26 71 2 122 -23 49 -443 469
-484 484 -39 15 -86 13 -123 -5z"/>
</g>
</svg>
